<?xml version="1.0" encoding="UTF-8" standalone="no"?>
<!DOCTYPE svg PUBLIC "-//W3C//DTD SVG 1.1//EN"
 "http://www.w3.org/Graphics/SVG/1.1/DTD/svg11.dtd">
<!-- Generated by graphviz version 3.0.0 (20220226.1711)
 -->
<!-- Pages: 1 -->
<svg width="2338pt" height="176pt"
 viewBox="0.00 0.00 2338.11 175.52" xmlns="http://www.w3.org/2000/svg" xmlns:xlink="http://www.w3.org/1999/xlink">
<g id="graph0" class="graph" transform="scale(1 1) rotate(0) translate(4 171.52)">
<polygon fill="white" stroke="transparent" points="-4,4 -4,-171.52 2334.11,-171.52 2334.11,4 -4,4"/>
<!-- ai: 1 -->
<g id="node1" class="node">
<title>ai: 1</title>
<polygon fill="lightgray" stroke="black" points="32,-139.75 0,-139.75 0,-121.75 32,-121.75 32,-139.75"/>
<text text-anchor="middle" x="16" y="-128.55" font-family="Times New Roman,serif" font-size="9.00">ai: 1</text>
</g>
<!-- ai: 2 -->
<g id="node2" class="node">
<title>ai: 2</title>
<polygon fill="lightgray" stroke="black" points="82,-139.75 50,-139.75 50,-121.75 82,-121.75 82,-139.75"/>
<text text-anchor="middle" x="66" y="-128.55" font-family="Times New Roman,serif" font-size="9.00">ai: 2</text>
</g>
<!-- ai: 3 -->
<g id="node3" class="node">
<title>ai: 3</title>
<polygon fill="lightgray" stroke="black" points="132,-139.75 100,-139.75 100,-121.75 132,-121.75 132,-139.75"/>
<text text-anchor="middle" x="116" y="-128.55" font-family="Times New Roman,serif" font-size="9.00">ai: 3</text>
</g>
<!-- ai: 4 -->
<g id="node4" class="node">
<title>ai: 4</title>
<polygon fill="lightgray" stroke="black" points="182,-139.75 150,-139.75 150,-121.75 182,-121.75 182,-139.75"/>
<text text-anchor="middle" x="166" y="-128.55" font-family="Times New Roman,serif" font-size="9.00">ai: 4</text>
</g>
<!-- ai: 5 -->
<g id="node5" class="node">
<title>ai: 5</title>
<polygon fill="lightgray" stroke="black" points="232,-139.75 200,-139.75 200,-121.75 232,-121.75 232,-139.75"/>
<text text-anchor="middle" x="216" y="-128.55" font-family="Times New Roman,serif" font-size="9.00">ai: 5</text>
</g>
<!-- ai: 6 -->
<g id="node6" class="node">
<title>ai: 6</title>
<polygon fill="lightgray" stroke="black" points="282,-139.75 250,-139.75 250,-121.75 282,-121.75 282,-139.75"/>
<text text-anchor="middle" x="266" y="-128.55" font-family="Times New Roman,serif" font-size="9.00">ai: 6</text>
</g>
<!-- ai: 7 -->
<g id="node7" class="node">
<title>ai: 7</title>
<polygon fill="lightgray" stroke="black" points="332,-139.75 300,-139.75 300,-121.75 332,-121.75 332,-139.75"/>
<text text-anchor="middle" x="316" y="-128.55" font-family="Times New Roman,serif" font-size="9.00">ai: 7</text>
</g>
<!-- ai: 8 -->
<g id="node8" class="node">
<title>ai: 8</title>
<polygon fill="lightgray" stroke="black" points="382,-139.75 350,-139.75 350,-121.75 382,-121.75 382,-139.75"/>
<text text-anchor="middle" x="366" y="-128.55" font-family="Times New Roman,serif" font-size="9.00">ai: 8</text>
</g>
<!-- ai: 9 -->
<g id="node9" class="node">
<title>ai: 9</title>
<polygon fill="lightgray" stroke="black" points="432,-139.75 400,-139.75 400,-121.75 432,-121.75 432,-139.75"/>
<text text-anchor="middle" x="416" y="-128.55" font-family="Times New Roman,serif" font-size="9.00">ai: 9</text>
</g>
<!-- opponent: 1 -->
<g id="node10" class="node">
<title>opponent: 1</title>
<polygon fill="lightgray" stroke="black" points="511.5,-139.75 450.5,-139.75 450.5,-121.75 511.5,-121.75 511.5,-139.75"/>
<text text-anchor="middle" x="481" y="-128.55" font-family="Times New Roman,serif" font-size="9.00">opponent: 1</text>
</g>
<!-- opponent: 2 -->
<g id="node11" class="node">
<title>opponent: 2</title>
<polygon fill="lightgray" stroke="black" points="590.5,-139.75 529.5,-139.75 529.5,-121.75 590.5,-121.75 590.5,-139.75"/>
<text text-anchor="middle" x="560" y="-128.55" font-family="Times New Roman,serif" font-size="9.00">opponent: 2</text>
</g>
<!-- opponent: 3 -->
<g id="node12" class="node">
<title>opponent: 3</title>
<polygon fill="lightgray" stroke="black" points="669.5,-139.75 608.5,-139.75 608.5,-121.75 669.5,-121.75 669.5,-139.75"/>
<text text-anchor="middle" x="639" y="-128.55" font-family="Times New Roman,serif" font-size="9.00">opponent: 3</text>
</g>
<!-- opponent: 4 -->
<g id="node13" class="node">
<title>opponent: 4</title>
<polygon fill="lightgray" stroke="black" points="748.5,-139.75 687.5,-139.75 687.5,-121.75 748.5,-121.75 748.5,-139.75"/>
<text text-anchor="middle" x="718" y="-128.55" font-family="Times New Roman,serif" font-size="9.00">opponent: 4</text>
</g>
<!-- opponent: 5 -->
<g id="node14" class="node">
<title>opponent: 5</title>
<polygon fill="lightgray" stroke="black" points="827.5,-139.75 766.5,-139.75 766.5,-121.75 827.5,-121.75 827.5,-139.75"/>
<text text-anchor="middle" x="797" y="-128.55" font-family="Times New Roman,serif" font-size="9.00">opponent: 5</text>
</g>
<!-- opponent: 6 -->
<g id="node15" class="node">
<title>opponent: 6</title>
<polygon fill="lightgray" stroke="black" points="906.5,-139.75 845.5,-139.75 845.5,-121.75 906.5,-121.75 906.5,-139.75"/>
<text text-anchor="middle" x="876" y="-128.55" font-family="Times New Roman,serif" font-size="9.00">opponent: 6</text>
</g>
<!-- opponent: 7 -->
<g id="node16" class="node">
<title>opponent: 7</title>
<polygon fill="lightgray" stroke="black" points="985.5,-139.75 924.5,-139.75 924.5,-121.75 985.5,-121.75 985.5,-139.75"/>
<text text-anchor="middle" x="955" y="-128.55" font-family="Times New Roman,serif" font-size="9.00">opponent: 7</text>
</g>
<!-- opponent: 8 -->
<g id="node17" class="node">
<title>opponent: 8</title>
<polygon fill="lightgray" stroke="black" points="1064.5,-139.75 1003.5,-139.75 1003.5,-121.75 1064.5,-121.75 1064.5,-139.75"/>
<text text-anchor="middle" x="1034" y="-128.55" font-family="Times New Roman,serif" font-size="9.00">opponent: 8</text>
</g>
<!-- opponent: 9 -->
<g id="node18" class="node">
<title>opponent: 9</title>
<polygon fill="lightgray" stroke="black" points="1143.5,-139.75 1082.5,-139.75 1082.5,-121.75 1143.5,-121.75 1143.5,-139.75"/>
<text text-anchor="middle" x="1113" y="-128.55" font-family="Times New Roman,serif" font-size="9.00">opponent: 9</text>
</g>
<!-- output: 1 -->
<g id="node19" class="node">
<title>output: 1</title>
<ellipse fill="lightblue" stroke="black" cx="1197" cy="-130.75" rx="35.21" ry="35.21"/>
<text text-anchor="middle" x="1197" y="-128.55" font-family="Times New Roman,serif" font-size="9.00">output: 1</text>
</g>
<!-- output: 2 -->
<g id="node20" class="node">
<title>output: 2</title>
<ellipse fill="lightblue" stroke="black" cx="1286" cy="-130.75" rx="35.21" ry="35.21"/>
<text text-anchor="middle" x="1286" y="-128.55" font-family="Times New Roman,serif" font-size="9.00">output: 2</text>
</g>
<!-- output: 3 -->
<g id="node21" class="node">
<title>output: 3</title>
<ellipse fill="lightblue" stroke="black" cx="1375" cy="-130.75" rx="35.21" ry="35.21"/>
<text text-anchor="middle" x="1375" y="-128.55" font-family="Times New Roman,serif" font-size="9.00">output: 3</text>
</g>
<!-- output: 4 -->
<g id="node22" class="node">
<title>output: 4</title>
<ellipse fill="lightblue" stroke="black" cx="1464" cy="-130.75" rx="35.21" ry="35.21"/>
<text text-anchor="middle" x="1464" y="-128.55" font-family="Times New Roman,serif" font-size="9.00">output: 4</text>
</g>
<!-- output: 5 -->
<g id="node23" class="node">
<title>output: 5</title>
<ellipse fill="lightblue" stroke="black" cx="1553" cy="-130.75" rx="35.21" ry="35.21"/>
<text text-anchor="middle" x="1553" y="-128.55" font-family="Times New Roman,serif" font-size="9.00">output: 5</text>
</g>
<!-- output: 6 -->
<g id="node24" class="node">
<title>output: 6</title>
<ellipse fill="lightblue" stroke="black" cx="1642" cy="-130.75" rx="35.21" ry="35.21"/>
<text text-anchor="middle" x="1642" y="-128.55" font-family="Times New Roman,serif" font-size="9.00">output: 6</text>
</g>
<!-- output: 7 -->
<g id="node25" class="node">
<title>output: 7</title>
<ellipse fill="lightblue" stroke="black" cx="1731" cy="-130.75" rx="35.21" ry="35.21"/>
<text text-anchor="middle" x="1731" y="-128.55" font-family="Times New Roman,serif" font-size="9.00">output: 7</text>
</g>
<!-- output: 8 -->
<g id="node26" class="node">
<title>output: 8</title>
<ellipse fill="lightblue" stroke="black" cx="1820" cy="-130.75" rx="35.21" ry="35.21"/>
<text text-anchor="middle" x="1820" y="-128.55" font-family="Times New Roman,serif" font-size="9.00">output: 8</text>
</g>
<!-- output: 9 -->
<g id="node27" class="node">
<title>output: 9</title>
<ellipse fill="lightblue" stroke="black" cx="1909" cy="-130.75" rx="35.21" ry="35.21"/>
<text text-anchor="middle" x="1909" y="-128.55" font-family="Times New Roman,serif" font-size="9.00">output: 9</text>
</g>
<!-- ai -->
<g id="node28" class="node">
<title>ai</title>
<ellipse fill="none" stroke="black" cx="1979" cy="-130.75" rx="16.03" ry="16.03"/>
<text text-anchor="middle" x="1979" y="-128.55" font-family="Times New Roman,serif" font-size="9.00">ai</text>
</g>
<!-- output -->
<g id="node29" class="node">
<title>output</title>
<ellipse fill="none" stroke="black" cx="2050" cy="-28.99" rx="28.98" ry="28.98"/>
<text text-anchor="middle" x="2050" y="-26.79" font-family="Times New Roman,serif" font-size="9.00">output</text>
</g>
<!-- ai&#45;&gt;output -->
<g id="edge1" class="edge">
<title>ai: 9&#45;&gt;output: 2</title>
<path fill="none" stroke="green" stroke-width="0.28" d="M1962.69,-129.73C1664.48,-129.05 1677.98,-109.53 1689,-93.98 1708.38,-66.64 1732.79,-33.03 2010.87,-30.19"/>
<polygon fill="green" stroke="green" stroke-width="0.28" points="2010.9,-33.69 2020.87,-30.1 2010.84,-26.69 2010.9,-33.69"/>
</g>
<!-- ai&#45;&gt;output -->
<g id="edge2" class="edge">
<title>ai: 8&#45;&gt;output: 8</title>
<path fill="none" stroke="green" stroke-width="0.1" d="M1962.37,-129.73C1682.52,-128.99 1696,-109.5 1707,-93.98 1726.32,-66.72 1750.65,-33.23 2010.74,-30.21"/>
<polygon fill="green" stroke="green" stroke-width="0.1" points="2010.93,-33.71 2020.89,-30.11 2010.86,-26.71 2010.93,-33.71"/>
</g>
<!-- ai&#45;&gt;output -->
<g id="edge3" class="edge">
<title>ai: 9&#45;&gt;output: 6</title>
<path fill="none" stroke="red" stroke-width="0.37" d="M1962.59,-129.73C1700.55,-128.96 1714.01,-109.49 1725,-93.98 1744.26,-66.82 1768.47,-33.47 2010.54,-30.24"/>
<polygon fill="red" stroke="red" stroke-width="0.37" points="2010.78,-33.74 2020.74,-30.13 2010.7,-26.74 2010.78,-33.74"/>
</g>
<!-- ai&#45;&gt;output -->
<g id="edge5" class="edge">
<title>ai: 9&#45;&gt;output: 7</title>
<path fill="none" stroke="red" stroke-width="0.3" d="M1962.56,-129.72C1718.59,-128.9 1732.02,-109.47 1743,-93.98 1762.19,-66.91 1786.3,-33.7 2010.69,-30.28"/>
<polygon fill="red" stroke="red" stroke-width="0.3" points="2010.88,-33.78 2020.83,-30.15 2010.79,-26.78 2010.88,-33.78"/>
</g>
<!-- ai&#45;&gt;output -->
<g id="edge7" class="edge">
<title>ai: 4&#45;&gt;output: 2</title>
<path fill="none" stroke="red" stroke-width="0.25" d="M1962.67,-129.72C1736.63,-128.84 1750.04,-109.44 1761,-93.98 1780.1,-67.03 1804.09,-34 2010.56,-30.33"/>
<polygon fill="red" stroke="red" stroke-width="0.25" points="2010.91,-33.82 2020.85,-30.17 2010.8,-26.82 2010.91,-33.82"/>
</g>
<!-- ai&#45;&gt;output -->
<g id="edge8" class="edge">
<title>ai: 6&#45;&gt;output: 4</title>
<path fill="none" stroke="green" stroke-width="0.15" d="M1962.63,-129.72C1754.68,-128.76 1768.06,-109.41 1779,-93.98 1798.01,-67.16 1821.87,-34.3 2010.86,-30.38"/>
<polygon fill="green" stroke="green" stroke-width="0.15" points="2010.93,-33.88 2020.87,-30.2 2010.81,-26.88 2010.93,-33.88"/>
</g>
<!-- ai&#45;&gt;output -->
<g id="edge9" class="edge">
<title>ai: 1&#45;&gt;output: 2</title>
<path fill="none" stroke="green" stroke-width="0.27" d="M1962.51,-129.71C1772.75,-128.66 1786.09,-109.37 1797,-93.98 1815.9,-67.32 1839.58,-34.7 2010.81,-30.45"/>
<polygon fill="green" stroke="green" stroke-width="0.27" points="2011.03,-33.95 2020.95,-30.24 2010.88,-26.95 2011.03,-33.95"/>
</g>
<!-- ai&#45;&gt;output -->
<g id="edge10" class="edge">
<title>ai: 8&#45;&gt;output: 1</title>
<path fill="none" stroke="red" stroke-width="0.21" d="M1962.65,-129.7C1790.82,-128.57 1804.12,-109.33 1815,-93.98 1833.76,-67.52 1857.22,-35.2 2010.64,-30.56"/>
<polygon fill="red" stroke="red" stroke-width="0.21" points="2011.03,-34.05 2020.93,-30.29 2010.85,-27.05 2011.03,-34.05"/>
</g>
<!-- ai&#45;&gt;output -->
<g id="edge11" class="edge">
<title>ai: 2&#45;&gt;output: 5</title>
<path fill="none" stroke="green" stroke-width="0.38" d="M1962.57,-129.69C1808.91,-128.43 1822.16,-109.28 1833,-93.98 1851.6,-67.74 1874.83,-35.73 2010.96,-30.68"/>
<polygon fill="green" stroke="green" stroke-width="0.38" points="2011.07,-34.17 2020.96,-30.36 2010.85,-27.18 2011.07,-34.17"/>
</g>
<!-- ai&#45;&gt;output -->
<g id="edge15" class="edge">
<title>ai: 6&#45;&gt;output: 9</title>
<path fill="none" stroke="red" stroke-width="0.51" d="M1962.65,-129.67C1827.02,-128.28 1840.2,-109.22 1851,-93.98 1869.37,-68.06 1892.26,-36.51 2010.56,-30.87"/>
<polygon fill="red" stroke="red" stroke-width="0.51" points="2010.92,-34.36 2020.77,-30.46 2010.63,-27.37 2010.92,-34.36"/>
</g>
<!-- ai&#45;&gt;output -->
<g id="edge17" class="edge">
<title>ai: 8&#45;&gt;output: 7</title>
<path fill="none" stroke="green" stroke-width="0.26" d="M1962.77,-129.65C1845.15,-128.08 1858.25,-109.14 1869,-93.98 1887.13,-68.41 1909.65,-37.36 2010.95,-31.11"/>
<polygon fill="green" stroke="green" stroke-width="0.26" points="2011.2,-34.61 2021.01,-30.59 2010.84,-27.62 2011.2,-34.61"/>
</g>
<!-- ai&#45;&gt;output -->
<g id="edge19" class="edge">
<title>ai: 5&#45;&gt;output: 1</title>
<path fill="none" stroke="red" stroke-width="0.38" d="M1962.48,-129.61C1863.37,-127.78 1876.34,-109.02 1887,-93.98 1904.77,-68.91 1926.77,-38.58 2010.9,-31.51"/>
<polygon fill="red" stroke="red" stroke-width="0.38" points="2011.18,-35 2020.91,-30.8 2010.69,-28.02 2011.18,-35"/>
</g>
<!-- ai&#45;&gt;output -->
<g id="edge21" class="edge">
<title>ai: 3&#45;&gt;output: 5</title>
<path fill="none" stroke="red" stroke-width="0.43" d="M1962.74,-129.55C1881.61,-127.43 1894.44,-108.88 1905,-93.98 1922.27,-69.62 1943.53,-40.28 2010.78,-32.16"/>
<polygon fill="red" stroke="red" stroke-width="0.43" points="2011.45,-35.62 2021.04,-31.12 2010.74,-28.65 2011.45,-35.62"/>
</g>
<!-- ai&#45;&gt;output -->
<g id="edge22" class="edge">
<title>ai: 7&#45;&gt;output: 6</title>
<path fill="none" stroke="green" stroke-width="0.37" d="M1962.49,-129.43C1900.03,-126.81 1912.62,-108.63 1923,-93.98 1939.57,-70.6 1959.82,-42.64 2011.01,-33.25"/>
<polygon fill="green" stroke="green" stroke-width="0.37" points="2011.58,-36.7 2020.93,-31.72 2010.51,-29.78 2011.58,-36.7"/>
</g>
<!-- ai&#45;&gt;output -->
<g id="edge25" class="edge">
<title>ai: 5&#45;&gt;output: 5</title>
<path fill="none" stroke="red" stroke-width="0.43" d="M1962.67,-129.2C1918.67,-125.9 1930.88,-108.26 1941,-93.98 1956.47,-72.16 1975.14,-46.34 2011.17,-35.36"/>
<polygon fill="red" stroke="red" stroke-width="0.43" points="2012.43,-38.65 2021.26,-32.79 2010.7,-31.87 2012.43,-38.65"/>
</g>
<!-- ai&#45;&gt;output -->
<g id="edge33" class="edge">
<title>ai: 9&#45;&gt;output: 8</title>
<path fill="none" stroke="red" stroke-width="0.39" d="M1962.65,-128.51C1938.04,-123.92 1949.45,-107.46 1959,-93.98 1972.75,-74.58 1989.03,-52.03 2012.15,-39.55"/>
<polygon fill="red" stroke="red" stroke-width="0.39" points="2013.75,-42.66 2021.36,-35.28 2010.81,-36.31 2013.75,-42.66"/>
</g>
<!-- ai&#45;&gt;output -->
<g id="edge37" class="edge">
<title>ai: 3&#45;&gt;output: 7</title>
<path fill="none" stroke="red" stroke-width="0.25" d="M1964.06,-124.16C1960.77,-117.11 1969.46,-104.61 1977,-93.98 1988.28,-78.07 2001.27,-60.03 2015.22,-47.17"/>
<polygon fill="red" stroke="red" stroke-width="0.25" points="2017.65,-49.7 2023.07,-40.6 2013.16,-44.33 2017.65,-49.7"/>
</g>
<!-- ai&#45;&gt;output -->
<g id="edge38" class="edge">
<title>ai: 2&#45;&gt;output: 6</title>
<path fill="none" stroke="green" stroke-width="0.78" d="M1981.34,-114.4C1985.08,-108.07 1990.27,-100.66 1995,-93.98 2003.66,-81.77 2013.32,-68.3 2022.25,-56.89"/>
<polygon fill="green" stroke="green" stroke-width="0.78" points="2025.06,-58.97 2028.6,-48.98 2019.61,-54.59 2025.06,-58.97"/>
</g>
<!-- ai&#45;&gt;output -->
<g id="edge41" class="edge">
<title>ai: 6&#45;&gt;output: 1</title>
<path fill="none" stroke="green" stroke-width="0.65" d="M1992.39,-120.91C1999.17,-113.66 2006.52,-103.13 2013,-93.98 2019.78,-84.41 2027.19,-74.07 2033.69,-64.55"/>
<polygon fill="green" stroke="green" stroke-width="0.65" points="2036.7,-66.34 2039.37,-56.09 2030.89,-62.44 2036.7,-66.34"/>
</g>
<!-- ai&#45;&gt;output -->
<g id="edge42" class="edge">
<title>ai: 5&#45;&gt;output: 2</title>
<path fill="none" stroke="red" stroke-width="0.22" d="M1994.93,-127.14C2011.91,-121.22 2022.24,-106.34 2031,-93.98 2037.35,-85.02 2044.24,-75.4 2049.87,-66.39"/>
<polygon fill="red" stroke="red" stroke-width="0.22" points="2052.96,-68.04 2055.02,-57.65 2046.93,-64.49 2052.96,-68.04"/>
</g>
<!-- ai&#45;&gt;output -->
<g id="edge43" class="edge">
<title>ai: 1&#45;&gt;output: 6</title>
<path fill="none" stroke="red" stroke-width="0.43" d="M1995.34,-128.75C2027.62,-124.53 2039.27,-107.7 2049,-93.98 2058.39,-80.74 2068.96,-66.02 2073.11,-54.04"/>
<polygon fill="red" stroke="red" stroke-width="0.43" points="2076.61,-54.39 2074.91,-43.93 2069.71,-53.17 2076.61,-54.39"/>
</g>
<!-- ai&#45;&gt;output -->
<g id="edge44" class="edge">
<title>ai: 4&#45;&gt;output: 4</title>
<path fill="none" stroke="green" stroke-width="0.25" d="M1995.46,-129.25C2044.56,-126.05 2056.84,-108.32 2067,-93.98 2080.55,-74.86 2096.56,-52.68 2086.8,-40.1"/>
<polygon fill="green" stroke="green" stroke-width="0.25" points="2088.72,-37.16 2078.55,-34.17 2084.63,-42.85 2088.72,-37.16"/>
</g>
<!-- ai&#45;&gt;output -->
<g id="edge45" class="edge">
<title>ai: 6&#45;&gt;output: 5</title>
<path fill="none" stroke="red" stroke-width="0.32" d="M1995.53,-129.45C2061.98,-126.89 2074.59,-108.66 2085,-93.98 2100.8,-71.69 2119.95,-45.23 2089.14,-34.68"/>
<polygon fill="red" stroke="red" stroke-width="0.32" points="2089.63,-31.19 2079.08,-32.14 2087.92,-37.98 2089.63,-31.19"/>
</g>
<!-- ai&#45;&gt;output -->
<g id="edge46" class="edge">
<title>ai: 4&#45;&gt;output: 9</title>
<path fill="none" stroke="red" stroke-width="0.26" d="M1995.28,-129.56C2079.58,-127.47 2092.43,-108.89 2103,-93.98 2119.94,-70.08 2140.73,-41.39 2089.13,-32.65"/>
<polygon fill="red" stroke="red" stroke-width="0.26" points="2089.41,-29.15 2079.03,-31.29 2088.48,-36.09 2089.41,-29.15"/>
</g>
<!-- ai&#45;&gt;output -->
<g id="edge49" class="edge">
<title>ai: 1&#45;&gt;output: 4</title>
<path fill="none" stroke="green" stroke-width="0.38" d="M1995.41,-129.61C2097.34,-127.81 2110.33,-109.03 2121,-93.98 2138.59,-69.17 2160.31,-39.21 2089.15,-31.74"/>
<polygon fill="green" stroke="green" stroke-width="0.38" points="2089.26,-28.24 2079,-30.87 2088.66,-35.21 2089.26,-28.24"/>
</g>
<!-- ai&#45;&gt;output -->
<g id="edge50" class="edge">
<title>ai: 1&#45;&gt;output: 7</title>
<path fill="none" stroke="red" stroke-width="0.41" d="M1995.37,-129.65C2115.15,-128.08 2128.25,-109.14 2139,-93.98 2157.02,-68.57 2179.37,-37.74 2089.11,-31.23"/>
<polygon fill="red" stroke="red" stroke-width="0.41" points="2089.29,-27.74 2079.1,-30.64 2088.87,-34.73 2089.29,-27.74"/>
</g>
<!-- ai&#45;&gt;output -->
<g id="edge51" class="edge">
<title>ai: 1&#45;&gt;output: 5</title>
<path fill="none" stroke="red" stroke-width="0.55" d="M1995.47,-129.67C2133.02,-128.28 2146.2,-109.22 2157,-93.98 2175.3,-68.17 2198.08,-36.77 2089.5,-30.94"/>
<polygon fill="red" stroke="red" stroke-width="0.55" points="2089.46,-27.44 2079.31,-30.49 2089.14,-34.43 2089.46,-27.44"/>
</g>
<!-- ai&#45;&gt;output -->
<g id="edge53" class="edge">
<title>ai: 5&#45;&gt;output: 9</title>
<path fill="none" stroke="red" stroke-width="0.23" d="M1995.52,-129.69C2150.91,-128.43 2164.16,-109.28 2175,-93.98 2193.53,-67.85 2216.65,-35.99 2089.61,-30.74"/>
<polygon fill="red" stroke="red" stroke-width="0.23" points="2089.49,-27.23 2079.37,-30.38 2089.25,-34.23 2089.49,-27.23"/>
</g>
<!-- ai&#45;&gt;output -->
<g id="edge54" class="edge">
<title>ai: 5&#45;&gt;output: 4</title>
<path fill="none" stroke="red" stroke-width="0.66" d="M1995.43,-129.7C2168.82,-128.57 2182.12,-109.33 2193,-93.98 2211.72,-67.58 2235.12,-35.33 2089.43,-30.59"/>
<polygon fill="red" stroke="red" stroke-width="0.66" points="2089.21,-27.08 2079.12,-30.3 2089.02,-34.08 2089.21,-27.08"/>
</g>
<!-- ai&#45;&gt;output -->
<g id="edge57" class="edge">
<title>ai: 4&#45;&gt;output: 7</title>
<path fill="none" stroke="red" stroke-width="0.16" d="M1995.26,-129.71C2186.74,-128.68 2200.08,-109.38 2211,-93.98 2229.87,-67.36 2253.51,-34.8 2089.27,-30.47"/>
<polygon fill="red" stroke="red" stroke-width="0.16" points="2089.3,-26.97 2079.23,-30.25 2089.15,-33.97 2089.3,-26.97"/>
</g>
<!-- ai&#45;&gt;output -->
<g id="edge64" class="edge">
<title>ai: 6&#45;&gt;output: 2</title>
<path fill="none" stroke="green" stroke-width="0.45" d="M1995.42,-129.72C2204.68,-128.76 2218.06,-109.41 2229,-93.98 2248,-67.18 2271.82,-34.37 2089.13,-30.39"/>
<polygon fill="green" stroke="green" stroke-width="0.45" points="2089.19,-26.89 2079.12,-30.21 2089.06,-33.89 2089.19,-26.89"/>
</g>
<!-- ai&#45;&gt;output -->
<g id="edge66" class="edge">
<title>ai: 4&#45;&gt;output: 8</title>
<path fill="none" stroke="green" stroke-width="0.49" d="M1995.37,-129.72C2222.63,-128.84 2236.04,-109.44 2247,-93.98 2266.09,-67.05 2290.06,-34.04 2089.26,-30.33"/>
<polygon fill="green" stroke="green" stroke-width="0.49" points="2089.26,-26.83 2079.21,-30.18 2089.15,-33.83 2089.26,-26.83"/>
</g>
<!-- ai&#45;&gt;output -->
<g id="edge70" class="edge">
<title>ai: 3&#45;&gt;output: 6</title>
<path fill="none" stroke="red" stroke-width="0.33" d="M1995.48,-129.72C2240.59,-128.9 2254.02,-109.47 2265,-93.98 2284.17,-66.94 2308.26,-33.77 2089.55,-30.29"/>
<polygon fill="red" stroke="red" stroke-width="0.33" points="2089.34,-26.79 2079.29,-30.15 2089.24,-33.79 2089.34,-26.79"/>
</g>
<!-- ai&#45;&gt;output -->
<g id="edge71" class="edge">
<title>ai: 4&#45;&gt;output: 3</title>
<path fill="none" stroke="red" stroke-width="0.3" d="M1995.44,-129.73C2258.55,-128.96 2272.01,-109.49 2283,-93.98 2302.26,-66.82 2326.47,-33.47 2089.09,-30.24"/>
<polygon fill="red" stroke="red" stroke-width="0.3" points="2089.1,-26.74 2079.06,-30.13 2089.02,-33.74 2089.1,-26.74"/>
</g>
<!-- ai&#45;&gt;output -->
<g id="edge72" class="edge">
<title>ai: 8&#45;&gt;output: 6</title>
<path fill="none" stroke="red" stroke-width="0.36" d="M1995.24,-129.73C2276.51,-129.01 2289.99,-109.51 2301,-93.98 2320.31,-66.75 2344.6,-33.3 2089.7,-30.22"/>
<polygon fill="red" stroke="red" stroke-width="0.36" points="2089.37,-26.72 2079.34,-30.11 2089.3,-33.72 2089.37,-26.72"/>
</g>
<!-- ai&#45;&gt;output -->
<g id="edge74" class="edge">
<title>ai: 1&#45;&gt;output: 8</title>
<path fill="none" stroke="green" stroke-width="0.28" d="M1995.33,-129.73C2294.48,-129.05 2307.98,-109.53 2319,-93.98 2338.37,-66.65 2362.77,-33.06 2089.25,-30.19"/>
<polygon fill="green" stroke="green" stroke-width="0.28" points="2089.01,-26.69 2078.97,-30.1 2088.94,-33.69 2089.01,-26.69"/>
</g>
<!-- opponent -->
<g id="node30" class="node">
<title>opponent</title>
<ellipse fill="none" stroke="black" cx="2050" cy="-130.75" rx="36.54" ry="36.54"/>
<text text-anchor="middle" x="2050" y="-128.55" font-family="Times New Roman,serif" font-size="9.00">opponent</text>
</g>
<!-- opponent&#45;&gt;output -->
<g id="edge4" class="edge">
<title>opponent: 8&#45;&gt;output: 9</title>
<path fill="none" stroke="green" stroke-width="0.35" d="M2013.2,-129.41C1694.3,-123.25 1693.27,-37.07 2010.12,-30.4"/>
<polygon fill="green" stroke="green" stroke-width="0.35" points="2010.62,-33.89 2020.56,-30.21 2010.49,-26.89 2010.62,-33.89"/>
</g>
<!-- opponent&#45;&gt;output -->
<g id="edge6" class="edge">
<title>opponent: 6&#45;&gt;output: 9</title>
<path fill="none" stroke="green" stroke-width="0.26" d="M2012.85,-129.36C1712.22,-122.86 1711.39,-37.38 2010.35,-30.44"/>
<polygon fill="green" stroke="green" stroke-width="0.26" points="2010.72,-33.93 2020.65,-30.23 2010.58,-26.93 2010.72,-33.93"/>
</g>
<!-- opponent&#45;&gt;output -->
<g id="edge12" class="edge">
<title>opponent: 8&#45;&gt;output: 4</title>
<path fill="none" stroke="red" stroke-width="0.32" d="M2012.95,-129.32C1730.08,-122.51 1729.35,-37.69 2010.76,-30.48"/>
<polygon fill="red" stroke="red" stroke-width="0.32" points="2010.97,-33.98 2020.89,-30.26 2010.81,-26.98 2010.97,-33.98"/>
</g>
<!-- opponent&#45;&gt;output -->
<g id="edge13" class="edge">
<title>opponent: 9&#45;&gt;output: 7</title>
<path fill="none" stroke="red" stroke-width="0.21" d="M2013.25,-129.27C1748.15,-122.17 1747.25,-38.17 2010.57,-30.54"/>
<polygon fill="red" stroke="red" stroke-width="0.21" points="2010.94,-34.04 2020.85,-30.29 2010.77,-27.04 2010.94,-34.04"/>
</g>
<!-- opponent&#45;&gt;output -->
<g id="edge14" class="edge">
<title>opponent: 4&#45;&gt;output: 7</title>
<path fill="none" stroke="red" stroke-width="0.46" d="M2012.96,-129.2C1766.23,-121.66 1765.35,-38.71 2010.33,-30.62"/>
<polygon fill="red" stroke="red" stroke-width="0.46" points="2010.76,-34.11 2020.66,-30.33 2010.56,-27.12 2010.76,-34.11"/>
</g>
<!-- opponent&#45;&gt;output -->
<g id="edge16" class="edge">
<title>opponent: 4&#45;&gt;output: 1</title>
<path fill="none" stroke="green" stroke-width="0.36" d="M2012.98,-129.13C1784.19,-121.15 1783.34,-39.23 2010.43,-30.71"/>
<polygon fill="green" stroke="green" stroke-width="0.36" points="2010.82,-34.2 2020.7,-30.38 2010.6,-27.2 2010.82,-34.2"/>
</g>
<!-- opponent&#45;&gt;output -->
<g id="edge18" class="edge">
<title>opponent: 3&#45;&gt;output: 3</title>
<path fill="none" stroke="red" stroke-width="0.48" d="M2012.95,-129.03C1802.04,-120.56 1801.35,-39.74 2010.87,-30.79"/>
<polygon fill="red" stroke="red" stroke-width="0.48" points="2011.14,-34.29 2021.01,-30.42 2010.89,-27.29 2011.14,-34.29"/>
</g>
<!-- opponent&#45;&gt;output -->
<g id="edge20" class="edge">
<title>opponent: 1&#45;&gt;output: 4</title>
<path fill="none" stroke="green" stroke-width="0.2" d="M2013.27,-128.93C1820.08,-119.99 1819.25,-40.48 2010.77,-30.93"/>
<polygon fill="green" stroke="green" stroke-width="0.2" points="2011.09,-34.42 2020.93,-30.5 2010.79,-27.43 2011.09,-34.42"/>
</g>
<!-- opponent&#45;&gt;output -->
<g id="edge23" class="edge">
<title>opponent: 6&#45;&gt;output: 1</title>
<path fill="none" stroke="green" stroke-width="0.56" d="M2013.06,-128.78C1838.03,-119.17 1837.32,-41.25 2010.92,-31.08"/>
<polygon fill="green" stroke="green" stroke-width="0.56" points="2011.14,-34.58 2020.95,-30.58 2010.79,-27.59 2011.14,-34.58"/>
</g>
<!-- opponent&#45;&gt;output -->
<g id="edge24" class="edge">
<title>opponent: 7&#45;&gt;output: 6</title>
<path fill="none" stroke="green" stroke-width="0.17" d="M2013.08,-128.6C1856.2,-118.3 1855.31,-42.37 2010.4,-31.33"/>
<polygon fill="green" stroke="green" stroke-width="0.17" points="2011.08,-34.8 2020.85,-30.7 2010.65,-27.81 2011.08,-34.8"/>
</g>
<!-- opponent&#45;&gt;output -->
<g id="edge26" class="edge">
<title>opponent: 3&#45;&gt;output: 8</title>
<path fill="none" stroke="red" stroke-width="0.1" d="M2012.94,-128.34C1874.11,-117.19 1873.36,-43.42 2010.67,-31.59"/>
<polygon fill="red" stroke="red" stroke-width="0.1" points="2011.08,-35.07 2020.8,-30.85 2010.57,-28.09 2011.08,-35.07"/>
</g>
<!-- opponent&#45;&gt;output -->
<g id="edge27" class="edge">
<title>opponent: 1&#45;&gt;output: 9</title>
<path fill="none" stroke="green" stroke-width="0.14" d="M2013.05,-128.02C1892.02,-115.97 1891.32,-44.68 2010.94,-31.94"/>
<polygon fill="green" stroke="green" stroke-width="0.14" points="2011.28,-35.42 2020.92,-31.04 2010.65,-28.45 2011.28,-35.42"/>
</g>
<!-- opponent&#45;&gt;output -->
<g id="edge28" class="edge">
<title>opponent: 4&#45;&gt;output: 2</title>
<path fill="none" stroke="green" stroke-width="0.23" d="M2013.2,-127.58C1910.05,-114.49 1909.27,-46.39 2010.88,-32.47"/>
<polygon fill="green" stroke="green" stroke-width="0.23" points="2011.5,-35.93 2021.03,-31.3 2010.7,-28.97 2011.5,-35.93"/>
</g>
<!-- opponent&#45;&gt;output -->
<g id="edge29" class="edge">
<title>opponent: 6&#45;&gt;output: 8</title>
<path fill="none" stroke="green" stroke-width="0.17" d="M2013.36,-126.93C1927.99,-112.64 1927.22,-48.41 2011.05,-33.22"/>
<polygon fill="green" stroke="green" stroke-width="0.17" points="2011.76,-36.65 2021.12,-31.69 2010.7,-29.73 2011.76,-36.65"/>
</g>
<!-- opponent&#45;&gt;output -->
<g id="edge30" class="edge">
<title>opponent: 2&#45;&gt;output: 8</title>
<path fill="none" stroke="green" stroke-width="0.27" d="M2013.43,-125.9C1946.1,-110.24 1945.2,-51.32 2010.73,-34.5"/>
<polygon fill="green" stroke="green" stroke-width="0.27" points="2011.83,-37.84 2020.88,-32.33 2010.37,-31 2011.83,-37.84"/>
</g>
<!-- opponent&#45;&gt;output -->
<g id="edge31" class="edge">
<title>opponent: 8&#45;&gt;output: 8</title>
<path fill="none" stroke="red" stroke-width="0.43" d="M2013.69,-124.25C1963.82,-107.06 1963.11,-54.45 2011.57,-36.26"/>
<polygon fill="red" stroke="red" stroke-width="0.43" points="2012.67,-39.58 2021.19,-33.28 2010.6,-32.9 2012.67,-39.58"/>
</g>
<!-- opponent&#45;&gt;output -->
<g id="edge32" class="edge">
<title>opponent: 5&#45;&gt;output: 8</title>
<path fill="none" stroke="green" stroke-width="0.19" d="M2014.18,-121.25C1981.59,-102.78 1980.95,-59.1 2012.26,-39.64"/>
<polygon fill="green" stroke="green" stroke-width="0.19" points="2014.05,-42.66 2021.41,-35.04 2010.91,-36.4 2014.05,-42.66"/>
</g>
<!-- opponent&#45;&gt;output -->
<g id="edge34" class="edge">
<title>opponent: 7&#45;&gt;output: 9</title>
<path fill="none" stroke="red" stroke-width="0.48" d="M2016.09,-115.88C1998.77,-97.35 1998.32,-64.63 2014.74,-45.37"/>
<polygon fill="red" stroke="red" stroke-width="0.48" points="2017.22,-47.84 2022.17,-38.48 2012.46,-42.71 2017.22,-47.84"/>
</g>
<!-- opponent&#45;&gt;output -->
<g id="edge35" class="edge">
<title>opponent: 8&#45;&gt;output: 1</title>
<path fill="none" stroke="green" stroke-width="0.91" d="M2021.4,-107.61C2014.8,-91.73 2014.54,-70.36 2020.64,-54.06"/>
<polygon fill="green" stroke="green" stroke-width="0.91" points="2023.99,-55.18 2025.25,-44.66 2017.7,-52.09 2023.99,-55.18"/>
</g>
<!-- opponent&#45;&gt;output -->
<g id="edge36" class="edge">
<title>opponent: 2&#45;&gt;output: 3</title>
<path fill="none" stroke="red" stroke-width="0.16" d="M2031.14,-99.01C2029.37,-87.41 2029.29,-74.18 2030.89,-62.43"/>
<polygon fill="red" stroke="red" stroke-width="0.16" points="2034.34,-63.03 2032.73,-52.56 2027.46,-61.75 2034.34,-63.03"/>
</g>
<!-- opponent&#45;&gt;output -->
<g id="edge39" class="edge">
<title>opponent: 2&#45;&gt;output: 4</title>
<path fill="none" stroke="green" stroke-width="0.18" d="M2043.51,-94.3C2043.19,-85.6 2043.17,-76.27 2043.44,-67.48"/>
<polygon fill="green" stroke="green" stroke-width="0.18" points="2046.93,-67.64 2043.89,-57.49 2039.94,-67.32 2046.93,-67.64"/>
</g>
<!-- opponent&#45;&gt;output -->
<g id="edge40" class="edge">
<title>opponent: 8&#45;&gt;output: 5</title>
<path fill="none" stroke="red" stroke-width="0.58" d="M2056.49,-94.3C2056.81,-85.6 2056.83,-76.27 2056.56,-67.48"/>
<polygon fill="red" stroke="red" stroke-width="0.58" points="2060.06,-67.32 2056.11,-57.49 2053.07,-67.64 2060.06,-67.32"/>
</g>
<!-- opponent&#45;&gt;output -->
<g id="edge47" class="edge">
<title>opponent: 1&#45;&gt;output: 2</title>
<path fill="none" stroke="green" stroke-width="0.38" d="M2068.86,-99.01C2070.63,-87.41 2070.71,-74.18 2069.11,-62.43"/>
<polygon fill="green" stroke="green" stroke-width="0.38" points="2072.54,-61.75 2067.27,-52.56 2065.66,-63.03 2072.54,-61.75"/>
</g>
<!-- opponent&#45;&gt;output -->
<g id="edge48" class="edge">
<title>opponent: 6&#45;&gt;output: 3</title>
<path fill="none" stroke="red" stroke-width="0.39" d="M2078.6,-107.61C2085.2,-91.73 2085.46,-70.36 2079.36,-54.06"/>
<polygon fill="red" stroke="red" stroke-width="0.39" points="2082.3,-52.09 2074.75,-44.66 2076.01,-55.18 2082.3,-52.09"/>
</g>
<!-- opponent&#45;&gt;output -->
<g id="edge52" class="edge">
<title>opponent: 3&#45;&gt;output: 6</title>
<path fill="none" stroke="red" stroke-width="0.33" d="M2083.91,-115.88C2101.23,-97.35 2101.68,-64.63 2085.26,-45.37"/>
<polygon fill="red" stroke="red" stroke-width="0.33" points="2087.54,-42.71 2077.83,-38.48 2082.78,-47.84 2087.54,-42.71"/>
</g>
<!-- opponent&#45;&gt;output -->
<g id="edge55" class="edge">
<title>opponent: 1&#45;&gt;output: 8</title>
<path fill="none" stroke="green" stroke-width="0.19" d="M2085.82,-121.25C2118.41,-102.78 2119.05,-59.1 2087.74,-39.64"/>
<polygon fill="green" stroke="green" stroke-width="0.19" points="2089.09,-36.4 2078.59,-35.04 2085.95,-42.66 2089.09,-36.4"/>
</g>
<!-- opponent&#45;&gt;output -->
<g id="edge56" class="edge">
<title>opponent: 5&#45;&gt;output: 6</title>
<path fill="none" stroke="red" stroke-width="0.53" d="M2086.31,-124.25C2136.18,-107.06 2136.89,-54.45 2088.43,-36.26"/>
<polygon fill="red" stroke="red" stroke-width="0.53" points="2089.4,-32.9 2078.81,-33.28 2087.33,-39.58 2089.4,-32.9"/>
</g>
<!-- opponent&#45;&gt;output -->
<g id="edge58" class="edge">
<title>opponent: 9&#45;&gt;output: 3</title>
<path fill="none" stroke="red" stroke-width="0.12" d="M2086.57,-125.9C2153.9,-110.24 2154.8,-51.32 2089.27,-34.5"/>
<polygon fill="red" stroke="red" stroke-width="0.12" points="2089.63,-31 2079.12,-32.33 2088.17,-37.84 2089.63,-31"/>
</g>
<!-- opponent&#45;&gt;output -->
<g id="edge59" class="edge">
<title>opponent: 3&#45;&gt;output: 2</title>
<path fill="none" stroke="green" stroke-width="0.27" d="M2086.64,-126.93C2172.01,-112.64 2172.78,-48.41 2088.95,-33.22"/>
<polygon fill="green" stroke="green" stroke-width="0.27" points="2089.3,-29.73 2078.88,-31.69 2088.24,-36.65 2089.3,-29.73"/>
</g>
<!-- opponent&#45;&gt;output -->
<g id="edge60" class="edge">
<title>opponent: 1&#45;&gt;output: 6</title>
<path fill="none" stroke="red" stroke-width="0.13" d="M2086.8,-127.58C2189.95,-114.49 2190.73,-46.39 2089.12,-32.47"/>
<polygon fill="red" stroke="red" stroke-width="0.13" points="2089.3,-28.97 2078.97,-31.3 2088.5,-35.93 2089.3,-28.97"/>
</g>
<!-- opponent&#45;&gt;output -->
<g id="edge61" class="edge">
<title>opponent: 1&#45;&gt;output: 1</title>
<path fill="none" stroke="red" stroke-width="0.25" d="M2086.95,-128.02C2207.98,-115.97 2208.68,-44.68 2089.06,-31.94"/>
<polygon fill="red" stroke="red" stroke-width="0.25" points="2089.35,-28.45 2079.08,-31.04 2088.72,-35.42 2089.35,-28.45"/>
</g>
<!-- opponent&#45;&gt;output -->
<g id="edge62" class="edge">
<title>opponent: 1&#45;&gt;output: 7</title>
<path fill="none" stroke="red" stroke-width="0.44" d="M2087.06,-128.34C2225.89,-117.19 2226.64,-43.42 2089.33,-31.59"/>
<polygon fill="red" stroke="red" stroke-width="0.44" points="2089.43,-28.09 2079.2,-30.85 2088.92,-35.07 2089.43,-28.09"/>
</g>
<!-- opponent&#45;&gt;output -->
<g id="edge63" class="edge">
<title>opponent: 7&#45;&gt;output: 5</title>
<path fill="none" stroke="red" stroke-width="0.16" d="M2086.92,-128.6C2243.8,-118.3 2244.69,-42.37 2089.6,-31.33"/>
<polygon fill="red" stroke="red" stroke-width="0.16" points="2089.35,-27.81 2079.15,-30.7 2088.92,-34.8 2089.35,-27.81"/>
</g>
<!-- opponent&#45;&gt;output -->
<g id="edge65" class="edge">
<title>opponent: 5&#45;&gt;output: 3</title>
<path fill="none" stroke="green" stroke-width="0.45" d="M2086.94,-128.78C2261.97,-119.17 2262.68,-41.25 2089.08,-31.08"/>
<polygon fill="green" stroke="green" stroke-width="0.45" points="2089.21,-27.59 2079.05,-30.58 2088.86,-34.58 2089.21,-27.59"/>
</g>
<!-- opponent&#45;&gt;output -->
<g id="edge67" class="edge">
<title>opponent: 8&#45;&gt;output: 2</title>
<path fill="none" stroke="red" stroke-width="0.3" d="M2086.73,-128.93C2279.92,-119.99 2280.75,-40.48 2089.23,-30.93"/>
<polygon fill="red" stroke="red" stroke-width="0.3" points="2089.21,-27.43 2079.07,-30.5 2088.91,-34.42 2089.21,-27.43"/>
</g>
<!-- opponent&#45;&gt;output -->
<g id="edge68" class="edge">
<title>opponent: 5&#45;&gt;output: 4</title>
<path fill="none" stroke="red" stroke-width="0.13" d="M2087.05,-129.03C2297.96,-120.56 2298.65,-39.74 2089.13,-30.79"/>
<polygon fill="red" stroke="red" stroke-width="0.13" points="2089.11,-27.29 2078.99,-30.42 2088.86,-34.29 2089.11,-27.29"/>
</g>
<!-- opponent&#45;&gt;output -->
<g id="edge69" class="edge">
<title>opponent: 4&#45;&gt;output: 5</title>
<path fill="none" stroke="green" stroke-width="0.28" d="M2087.02,-129.13C2315.81,-121.15 2316.66,-39.23 2089.57,-30.71"/>
<polygon fill="green" stroke="green" stroke-width="0.28" points="2089.4,-27.2 2079.3,-30.38 2089.18,-34.2 2089.4,-27.2"/>
</g>
<!-- opponent&#45;&gt;output -->
<g id="edge73" class="edge">
<title>opponent: 4&#45;&gt;output: 3</title>
<path fill="none" stroke="green" stroke-width="0.13" d="M2087.04,-129.2C2333.77,-121.66 2334.65,-38.71 2089.67,-30.62"/>
<polygon fill="green" stroke="green" stroke-width="0.13" points="2089.44,-27.12 2079.34,-30.33 2089.24,-34.11 2089.44,-27.12"/>
</g>
<!-- opponent&#45;&gt;output -->
<g id="edge75" class="edge">
<title>opponent: 2&#45;&gt;output: 5</title>
<path fill="none" stroke="green" stroke-width="0.11" d="M2086.75,-129.27C2351.85,-122.17 2352.75,-38.17 2089.43,-30.54"/>
<polygon fill="green" stroke="green" stroke-width="0.11" points="2089.23,-27.04 2079.15,-30.29 2089.06,-34.04 2089.23,-27.04"/>
</g>
<!-- opponent&#45;&gt;output -->
<g id="edge76" class="edge">
<title>opponent: 9&#45;&gt;output: 2</title>
<path fill="none" stroke="red" stroke-width="0.31" d="M2087.05,-129.32C2369.92,-122.51 2370.65,-37.69 2089.24,-30.48"/>
<polygon fill="red" stroke="red" stroke-width="0.31" points="2089.19,-26.98 2079.11,-30.26 2089.03,-33.98 2089.19,-26.98"/>
</g>
<!-- opponent&#45;&gt;output -->
<g id="edge77" class="edge">
<title>opponent: 2&#45;&gt;output: 1</title>
<path fill="none" stroke="red" stroke-width="0.14" d="M2087.15,-129.36C2387.78,-122.86 2388.61,-37.38 2089.65,-30.44"/>
<polygon fill="red" stroke="red" stroke-width="0.14" points="2089.42,-26.93 2079.35,-30.23 2089.28,-33.93 2089.42,-26.93"/>
</g>
<!-- opponent&#45;&gt;output -->
<g id="edge78" class="edge">
<title>opponent: 4&#45;&gt;output: 9</title>
<path fill="none" stroke="red" stroke-width="0.14" d="M2086.8,-129.41C2405.7,-123.25 2406.73,-37.07 2089.88,-30.4"/>
<polygon fill="red" stroke="red" stroke-width="0.14" points="2089.51,-26.89 2079.44,-30.21 2089.38,-33.89 2089.51,-26.89"/>
</g>
</g>
</svg>
