<?xml version="1.0" encoding="UTF-8" standalone="no"?>
<!DOCTYPE svg PUBLIC "-//W3C//DTD SVG 1.1//EN"
 "http://www.w3.org/Graphics/SVG/1.1/DTD/svg11.dtd">
<!-- Generated by graphviz version 3.0.0 (20220226.1711)
 -->
<!-- Pages: 1 -->
<svg width="1619pt" height="170pt"
 viewBox="0.00 0.00 1618.86 170.12" xmlns="http://www.w3.org/2000/svg" xmlns:xlink="http://www.w3.org/1999/xlink">
<g id="graph0" class="graph" transform="scale(1 1) rotate(0) translate(4 166.12)">
<polygon fill="white" stroke="transparent" points="-4,4 -4,-166.12 1614.86,-166.12 1614.86,4 -4,4"/>
<!-- &#45;1 -->
<g id="node1" class="node">
<title>&#45;1</title>
<polygon fill="lightgray" stroke="black" points="90.86,-162.12 66.86,-162.12 66.86,-144.12 90.86,-144.12 90.86,-162.12"/>
<text text-anchor="middle" x="78.86" y="-150.92" font-family="Times New Roman,serif" font-size="9.00">&#45;1</text>
</g>
<!-- 2 -->
<g id="node12" class="node">
<title>2</title>
<ellipse fill="lightblue" stroke="black" cx="187.86" cy="-14.85" rx="14.7" ry="14.7"/>
<text text-anchor="middle" x="187.86" y="-12.65" font-family="Times New Roman,serif" font-size="9.00">2</text>
</g>
<!-- &#45;1&#45;&gt;2 -->
<g id="edge52" class="edge">
<title>&#45;1&#45;&gt;2</title>
<path fill="none" stroke="red" stroke-width="0.13" d="M66.6,-148.64C49.84,-143.14 20.42,-130.68 7.86,-108.12 -1.31,-91.65 -3.56,-80.71 7.86,-65.7 26.68,-40.96 118.24,-25.32 163.06,-19.02"/>
<polygon fill="red" stroke="red" stroke-width="0.13" points="163.68,-22.47 173.12,-17.66 162.74,-15.53 163.68,-22.47"/>
</g>
<!-- 3 -->
<g id="node13" class="node">
<title>3</title>
<ellipse fill="lightblue" stroke="black" cx="766.86" cy="-14.85" rx="14.7" ry="14.7"/>
<text text-anchor="middle" x="766.86" y="-12.65" font-family="Times New Roman,serif" font-size="9.00">3</text>
</g>
<!-- &#45;1&#45;&gt;3 -->
<g id="edge62" class="edge">
<title>&#45;1&#45;&gt;3</title>
<path fill="none" stroke="green" stroke-width="0.1" d="M90.86,-148.01C131.43,-134.28 267.32,-89.49 382.86,-65.7 516.75,-38.13 680.22,-22.91 741.8,-17.81"/>
<polygon fill="green" stroke="green" stroke-width="0.1" points="742.4,-21.27 752.08,-16.98 741.83,-14.3 742.4,-21.27"/>
</g>
<!-- 4 -->
<g id="node14" class="node">
<title>4</title>
<ellipse fill="lightblue" stroke="black" cx="940.86" cy="-14.85" rx="14.7" ry="14.7"/>
<text text-anchor="middle" x="940.86" y="-12.65" font-family="Times New Roman,serif" font-size="9.00">4</text>
</g>
<!-- &#45;1&#45;&gt;4 -->
<g id="edge2" class="edge">
<title>&#45;1&#45;&gt;4</title>
<path fill="none" stroke="red" stroke-width="0.21" d="M91.18,-150.63C126.2,-146.2 229.19,-131.94 311.86,-108.12 361.42,-93.85 369.71,-77.7 419.86,-65.7 432.1,-62.77 813.79,-27.54 915.93,-18.14"/>
<polygon fill="red" stroke="red" stroke-width="0.21" points="916.31,-21.62 925.95,-17.22 915.67,-14.65 916.31,-21.62"/>
</g>
<!-- 5 -->
<g id="node15" class="node">
<title>5</title>
<ellipse fill="lightblue" stroke="black" cx="249.86" cy="-14.85" rx="14.7" ry="14.7"/>
<text text-anchor="middle" x="249.86" y="-12.65" font-family="Times New Roman,serif" font-size="9.00">5</text>
</g>
<!-- &#45;1&#45;&gt;5 -->
<g id="edge13" class="edge">
<title>&#45;1&#45;&gt;5</title>
<path fill="none" stroke="red" stroke-width="0.15" d="M70.78,-143.89C55.64,-127.46 26.2,-90.08 45.86,-65.7 93.25,-6.93 139.34,-50.67 211.86,-29.7 216.75,-28.29 221.91,-26.56 226.8,-24.82"/>
<polygon fill="red" stroke="red" stroke-width="0.15" points="228.13,-28.06 236.29,-21.3 225.7,-21.5 228.13,-28.06"/>
</g>
<!-- 8 -->
<g id="node18" class="node">
<title>8</title>
<ellipse fill="lightblue" stroke="black" cx="591.86" cy="-14.85" rx="14.7" ry="14.7"/>
<text text-anchor="middle" x="591.86" y="-12.65" font-family="Times New Roman,serif" font-size="9.00">8</text>
</g>
<!-- &#45;1&#45;&gt;8 -->
<g id="edge11" class="edge">
<title>&#45;1&#45;&gt;8</title>
<path fill="none" stroke="red" stroke-width="0.13" d="M76.27,-143.87C71.44,-126.72 63.35,-87.05 83.86,-65.7 117.67,-30.51 469.36,-18.97 566.9,-16.44"/>
<polygon fill="red" stroke="red" stroke-width="0.13" points="567.1,-19.93 577.01,-16.18 566.93,-12.93 567.1,-19.93"/>
</g>
<!-- 146 -->
<g id="node21" class="node">
<title>146</title>
<ellipse fill="white" stroke="black" cx="988.86" cy="-86.91" rx="21.43" ry="21.43"/>
<text text-anchor="middle" x="988.86" y="-84.71" font-family="Times New Roman,serif" font-size="9.00">146</text>
</g>
<!-- &#45;1&#45;&gt;146 -->
<g id="edge43" class="edge">
<title>&#45;1&#45;&gt;146</title>
<path fill="none" stroke="green" stroke-width="0.27" d="M91.05,-151.8C162.99,-149.81 539.31,-138.29 844.86,-108.12 884.02,-104.26 928.87,-97.61 957.97,-93"/>
<polygon fill="green" stroke="green" stroke-width="0.27" points="958.62,-96.44 967.94,-91.4 957.51,-89.53 958.62,-96.44"/>
</g>
<!-- &#45;2 -->
<g id="node2" class="node">
<title>&#45;2</title>
<polygon fill="lightgray" stroke="black" points="584.86,-162.12 560.86,-162.12 560.86,-144.12 584.86,-144.12 584.86,-162.12"/>
<text text-anchor="middle" x="572.86" y="-150.92" font-family="Times New Roman,serif" font-size="9.00">&#45;2</text>
</g>
<!-- 1 -->
<g id="node11" class="node">
<title>1</title>
<ellipse fill="lightblue" stroke="black" cx="1384.86" cy="-86.91" rx="14.7" ry="14.7"/>
<text text-anchor="middle" x="1384.86" y="-84.71" font-family="Times New Roman,serif" font-size="9.00">1</text>
</g>
<!-- &#45;2&#45;&gt;1 -->
<g id="edge30" class="edge">
<title>&#45;2&#45;&gt;1</title>
<path fill="none" stroke="red" stroke-width="0.27" d="M584.97,-151.17C674.5,-144.09 1233.71,-99.86 1359.68,-89.9"/>
<polygon fill="red" stroke="red" stroke-width="0.27" points="1360.18,-93.37 1369.87,-89.1 1359.63,-86.4 1360.18,-93.37"/>
</g>
<!-- &#45;2&#45;&gt;2 -->
<g id="edge48" class="edge">
<title>&#45;2&#45;&gt;2</title>
<path fill="none" stroke="green" stroke-width="0.1" d="M560.63,-151C526.82,-147.62 429.56,-136 353.86,-108.12 298.06,-87.58 238.5,-50.19 208.17,-29.88"/>
<polygon fill="green" stroke="green" stroke-width="0.1" points="209.97,-26.87 199.73,-24.16 206.04,-32.67 209.97,-26.87"/>
</g>
<!-- &#45;2&#45;&gt;3 -->
<g id="edge6" class="edge">
<title>&#45;2&#45;&gt;3</title>
<path fill="none" stroke="red" stroke-width="0.28" d="M581.59,-143.89C598.92,-127.78 639.26,-91.4 676.86,-65.7 698.86,-50.66 725.78,-36.22 744.42,-26.79"/>
<polygon fill="red" stroke="red" stroke-width="0.28" points="746.2,-29.81 753.59,-22.21 743.08,-23.55 746.2,-29.81"/>
</g>
<!-- &#45;2&#45;&gt;4 -->
<g id="edge3" class="edge">
<title>&#45;2&#45;&gt;4</title>
<path fill="none" stroke="green" stroke-width="0.16" d="M585.07,-147.38C601.81,-140.47 632.26,-126.45 653.86,-108.12 672.08,-92.67 666.52,-78.22 686.86,-65.7 725.25,-42.07 859.47,-24.86 915.74,-18.52"/>
<polygon fill="green" stroke="green" stroke-width="0.16" points="916.34,-21.97 925.9,-17.4 915.58,-15.02 916.34,-21.97"/>
</g>
<!-- &#45;2&#45;&gt;5 -->
<g id="edge54" class="edge">
<title>&#45;2&#45;&gt;5</title>
<path fill="none" stroke="red" stroke-width="0.15" d="M560.82,-148.05C539.08,-140.61 491.87,-124.12 452.86,-108.12 386.39,-80.88 309.63,-44.65 272.42,-26.78"/>
<polygon fill="red" stroke="red" stroke-width="0.15" points="273.54,-23.43 263.01,-22.24 270.5,-29.74 273.54,-23.43"/>
</g>
<!-- &#45;2&#45;&gt;8 -->
<g id="edge16" class="edge">
<title>&#45;2&#45;&gt;8</title>
<path fill="none" stroke="green" stroke-width="0.28" d="M560.67,-151.41C537.18,-149.29 486,-140.94 463.86,-108.12 453.31,-92.49 453.22,-81.26 463.86,-65.7 486.88,-32.03 536.26,-21.1 566.51,-17.55"/>
<polygon fill="green" stroke="green" stroke-width="0.28" points="567.1,-21.01 576.71,-16.55 566.41,-14.05 567.1,-21.01"/>
</g>
<!-- 144 -->
<g id="node19" class="node">
<title>144</title>
<ellipse fill="white" stroke="black" cx="716.86" cy="-86.91" rx="21.43" ry="21.43"/>
<text text-anchor="middle" x="716.86" y="-84.71" font-family="Times New Roman,serif" font-size="9.00">144</text>
</g>
<!-- &#45;2&#45;&gt;144 -->
<g id="edge17" class="edge">
<title>&#45;2&#45;&gt;144</title>
<path fill="none" stroke="green" stroke-width="0.45" d="M584.87,-147.9C605.21,-140.62 647.56,-124.85 681.86,-108.12 684.61,-106.78 687.44,-105.31 690.24,-103.8"/>
<polygon fill="green" stroke="green" stroke-width="0.45" points="691.96,-106.85 698.96,-98.9 688.53,-100.75 691.96,-106.85"/>
</g>
<!-- &#45;2&#45;&gt;146 -->
<g id="edge45" class="edge">
<title>&#45;2&#45;&gt;146</title>
<path fill="none" stroke="green" stroke-width="0.33" d="M584.86,-150.27C640.37,-141.7 873.1,-105.78 957.84,-92.7"/>
<polygon fill="green" stroke="green" stroke-width="0.33" points="958.52,-96.14 967.87,-91.15 957.46,-89.22 958.52,-96.14"/>
</g>
<!-- &#45;3 -->
<g id="node3" class="node">
<title>&#45;3</title>
<polygon fill="lightgray" stroke="black" points="752.86,-162.12 728.86,-162.12 728.86,-144.12 752.86,-144.12 752.86,-162.12"/>
<text text-anchor="middle" x="740.86" y="-150.92" font-family="Times New Roman,serif" font-size="9.00">&#45;3</text>
</g>
<!-- &#45;3&#45;&gt;2 -->
<g id="edge49" class="edge">
<title>&#45;3&#45;&gt;2</title>
<path fill="none" stroke="green" stroke-width="0.22" d="M728.6,-149.57C697.16,-143 611.16,-124.83 539.86,-108.12 399.81,-75.31 363.4,-71.81 225.86,-29.7 221,-28.21 215.84,-26.45 210.95,-24.7"/>
<polygon fill="green" stroke="green" stroke-width="0.22" points="212.06,-21.38 201.46,-21.2 209.63,-27.95 212.06,-21.38"/>
</g>
<!-- &#45;3&#45;&gt;3 -->
<g id="edge23" class="edge">
<title>&#45;3&#45;&gt;3</title>
<path fill="none" stroke="green" stroke-width="0.13" d="M728.73,-146.36C715.62,-139.37 695.48,-126.26 686.86,-108.12 678.77,-91.09 677.71,-82.18 686.86,-65.7 698.78,-44.23 724.21,-30.8 743.21,-23.37"/>
<polygon fill="green" stroke="green" stroke-width="0.13" points="744.51,-26.62 752.72,-19.93 742.13,-20.04 744.51,-26.62"/>
</g>
<!-- 6 -->
<g id="node16" class="node">
<title>6</title>
<ellipse fill="lightblue" stroke="black" cx="988.86" cy="-14.85" rx="14.7" ry="14.7"/>
<text text-anchor="middle" x="988.86" y="-12.65" font-family="Times New Roman,serif" font-size="9.00">6</text>
</g>
<!-- &#45;3&#45;&gt;6 -->
<g id="edge1" class="edge">
<title>&#45;3&#45;&gt;6</title>
<path fill="none" stroke="green" stroke-width="0.18" d="M742.52,-143.93C746.5,-126.52 758.29,-85.84 784.86,-65.7 849.88,-16.41 888.52,-58.47 964.86,-29.7 965.73,-29.37 966.6,-29.02 967.47,-28.64"/>
<polygon fill="green" stroke="green" stroke-width="0.18" points="969.24,-31.66 976.54,-23.99 966.04,-25.44 969.24,-31.66"/>
</g>
<!-- 7 -->
<g id="node17" class="node">
<title>7</title>
<ellipse fill="lightblue" stroke="black" cx="1484.86" cy="-14.85" rx="14.7" ry="14.7"/>
<text text-anchor="middle" x="1484.86" y="-12.65" font-family="Times New Roman,serif" font-size="9.00">7</text>
</g>
<!-- &#45;3&#45;&gt;7 -->
<g id="edge51" class="edge">
<title>&#45;3&#45;&gt;7</title>
<path fill="none" stroke="red" stroke-width="0.26" d="M753.08,-150.36C791.98,-144.72 916.39,-126.37 1018.86,-108.12 1188.42,-77.93 1391.44,-35.59 1460.5,-21.02"/>
<polygon fill="red" stroke="red" stroke-width="0.26" points="1461.34,-24.42 1470.4,-18.92 1459.9,-17.57 1461.34,-24.42"/>
</g>
<!-- &#45;3&#45;&gt;144 -->
<g id="edge59" class="edge">
<title>&#45;3&#45;&gt;144</title>
<path fill="none" stroke="red" stroke-width="0.23" d="M737.82,-143.99C735.2,-136.98 731.26,-126.44 727.5,-116.37"/>
<polygon fill="red" stroke="red" stroke-width="0.23" points="730.78,-115.15 724,-107.01 724.22,-117.6 730.78,-115.15"/>
</g>
<!-- 145 -->
<g id="node20" class="node">
<title>145</title>
<ellipse fill="white" stroke="black" cx="814.86" cy="-86.91" rx="21.43" ry="21.43"/>
<text text-anchor="middle" x="814.86" y="-84.71" font-family="Times New Roman,serif" font-size="9.00">145</text>
</g>
<!-- &#45;3&#45;&gt;145 -->
<g id="edge68" class="edge">
<title>&#45;3&#45;&gt;145</title>
<path fill="none" stroke="red" stroke-width="0.14" d="M750.23,-143.99C760.51,-135.08 777.38,-120.43 791.31,-108.35"/>
<polygon fill="red" stroke="red" stroke-width="0.14" points="793.84,-110.78 799.1,-101.59 789.26,-105.5 793.84,-110.78"/>
</g>
<!-- &#45;4 -->
<g id="node4" class="node">
<title>&#45;4</title>
<polygon fill="lightgray" stroke="black" points="861.86,-162.12 837.86,-162.12 837.86,-144.12 861.86,-144.12 861.86,-162.12"/>
<text text-anchor="middle" x="849.86" y="-150.92" font-family="Times New Roman,serif" font-size="9.00">&#45;4</text>
</g>
<!-- 0 -->
<g id="node10" class="node">
<title>0</title>
<ellipse fill="lightblue" stroke="black" cx="1208.86" cy="-14.85" rx="14.7" ry="14.7"/>
<text text-anchor="middle" x="1208.86" y="-12.65" font-family="Times New Roman,serif" font-size="9.00">0</text>
</g>
<!-- &#45;4&#45;&gt;0 -->
<g id="edge57" class="edge">
<title>&#45;4&#45;&gt;0</title>
<path fill="none" stroke="green" stroke-width="0.11" d="M861.99,-149.83C890.11,-144.31 961.69,-129.22 1018.86,-108.12 1082.39,-84.69 1153.11,-47.06 1187.61,-27.9"/>
<polygon fill="green" stroke="green" stroke-width="0.11" points="1189.32,-30.95 1196.34,-23.01 1185.91,-24.84 1189.32,-30.95"/>
</g>
<!-- &#45;4&#45;&gt;2 -->
<g id="edge61" class="edge">
<title>&#45;4&#45;&gt;2</title>
<path fill="none" stroke="red" stroke-width="0.33" d="M837.59,-149.83C804.46,-143.59 710.49,-125.62 632.86,-108.12 556.47,-90.91 538.65,-81.05 461.86,-65.7 357.82,-44.9 328.65,-55.99 225.86,-29.7 220.93,-28.44 215.75,-26.78 210.85,-25.06"/>
<polygon fill="red" stroke="red" stroke-width="0.33" points="211.97,-21.73 201.37,-21.52 209.52,-28.29 211.97,-21.73"/>
</g>
<!-- &#45;4&#45;&gt;6 -->
<g id="edge4" class="edge">
<title>&#45;4&#45;&gt;6</title>
<path fill="none" stroke="red" stroke-width="0.16" d="M858.14,-144.01C880.24,-122.34 941.02,-62.75 971.27,-33.09"/>
<polygon fill="red" stroke="red" stroke-width="0.16" points="973.91,-35.4 978.6,-25.9 969.01,-30.41 973.91,-35.4"/>
</g>
<!-- &#45;4&#45;&gt;8 -->
<g id="edge21" class="edge">
<title>&#45;4&#45;&gt;8</title>
<path fill="none" stroke="green" stroke-width="0.12" d="M837.61,-150.94C809.35,-147.77 738.07,-137.26 686.86,-108.12 653.84,-89.34 623.87,-56.36 606.77,-35.34"/>
<polygon fill="green" stroke="green" stroke-width="0.12" points="609.42,-33.05 600.46,-27.4 603.94,-37.4 609.42,-33.05"/>
</g>
<!-- &#45;4&#45;&gt;144 -->
<g id="edge14" class="edge">
<title>&#45;4&#45;&gt;144</title>
<path fill="none" stroke="red" stroke-width="0.42" d="M837.59,-146.2C816.67,-136.1 773.61,-115.31 744.98,-101.49"/>
<polygon fill="red" stroke="red" stroke-width="0.42" points="746.41,-98.29 735.88,-97.09 743.36,-104.59 746.41,-98.29"/>
</g>
<!-- &#45;4&#45;&gt;146 -->
<g id="edge46" class="edge">
<title>&#45;4&#45;&gt;146</title>
<path fill="none" stroke="green" stroke-width="0.13" d="M861.93,-147.58C881.54,-140.07 921.39,-124.29 953.86,-108.12 956.6,-106.76 959.42,-105.28 962.22,-103.75"/>
<polygon fill="green" stroke="green" stroke-width="0.13" points="963.94,-106.8 970.93,-98.84 960.5,-100.7 963.94,-106.8"/>
</g>
<!-- &#45;5 -->
<g id="node5" class="node">
<title>&#45;5</title>
<polygon fill="lightgray" stroke="black" points="1000.86,-162.12 976.86,-162.12 976.86,-144.12 1000.86,-144.12 1000.86,-162.12"/>
<text text-anchor="middle" x="988.86" y="-150.92" font-family="Times New Roman,serif" font-size="9.00">&#45;5</text>
</g>
<!-- &#45;5&#45;&gt;0 -->
<g id="edge22" class="edge">
<title>&#45;5&#45;&gt;0</title>
<path fill="none" stroke="green" stroke-width="0.29" d="M1001.17,-152.5C1032.4,-152.79 1115.76,-149.4 1165.86,-108.12 1186.98,-90.72 1198.28,-60.61 1203.92,-39.54"/>
<polygon fill="green" stroke="green" stroke-width="0.29" points="1207.34,-40.28 1206.31,-29.73 1200.54,-38.62 1207.34,-40.28"/>
</g>
<!-- &#45;5&#45;&gt;3 -->
<g id="edge26" class="edge">
<title>&#45;5&#45;&gt;3</title>
<path fill="none" stroke="green" stroke-width="0.35" d="M979.91,-143.93C961.71,-127.55 918.66,-90.26 877.86,-65.7 849.14,-48.41 813.37,-33.4 790.33,-24.49"/>
<polygon fill="green" stroke="green" stroke-width="0.35" points="791.3,-21.11 780.71,-20.83 788.82,-27.66 791.3,-21.11"/>
</g>
<!-- &#45;5&#45;&gt;4 -->
<g id="edge35" class="edge">
<title>&#45;5&#45;&gt;4</title>
<path fill="none" stroke="green" stroke-width="0.15" d="M996.79,-143.85C1004.14,-135.57 1014.56,-122.08 1018.86,-108.12 1024.42,-90.11 1027.92,-82.24 1018.86,-65.7 1017.25,-62.76 984.55,-42.44 962.01,-28.67"/>
<polygon fill="green" stroke="green" stroke-width="0.15" points="963.74,-25.63 953.38,-23.41 960.1,-31.6 963.74,-25.63"/>
</g>
<!-- &#45;5&#45;&gt;6 -->
<g id="edge8" class="edge">
<title>&#45;5&#45;&gt;6</title>
<path fill="none" stroke="red" stroke-width="0.51" d="M1000.87,-151.01C1022.99,-148.23 1069.74,-138.84 1089.86,-108.12 1100.19,-92.35 1099.82,-81.71 1089.86,-65.7 1073.22,-38.94 1037.51,-26.11 1013.33,-20.29"/>
<polygon fill="red" stroke="red" stroke-width="0.51" points="1013.97,-16.84 1003.45,-18.14 1012.48,-23.68 1013.97,-16.84"/>
</g>
<!-- &#45;5&#45;&gt;8 -->
<g id="edge12" class="edge">
<title>&#45;5&#45;&gt;8</title>
<path fill="none" stroke="red" stroke-width="0.11" d="M976.81,-149.57C955.25,-144.55 909.37,-131.76 877.86,-108.12 858.75,-93.79 865.2,-78.23 844.86,-65.7 806.63,-42.14 672.93,-24.89 616.89,-18.53"/>
<polygon fill="red" stroke="red" stroke-width="0.11" points="617.09,-15.03 606.76,-17.41 616.31,-21.99 617.09,-15.03"/>
</g>
<!-- &#45;5&#45;&gt;145 -->
<g id="edge38" class="edge">
<title>&#45;5&#45;&gt;145</title>
<path fill="none" stroke="green" stroke-width="0.16" d="M976.64,-149.21C952.04,-143.14 895.03,-128.03 849.86,-108.12 847.15,-106.93 844.39,-105.58 841.65,-104.16"/>
<polygon fill="green" stroke="green" stroke-width="0.16" points="843.08,-100.95 832.64,-99.17 839.69,-107.08 843.08,-100.95"/>
</g>
<!-- &#45;5&#45;&gt;146 -->
<g id="edge31" class="edge">
<title>&#45;5&#45;&gt;146</title>
<path fill="none" stroke="red" stroke-width="0.1" d="M988.86,-143.99C988.86,-137.45 988.86,-127.82 988.86,-118.38"/>
<polygon fill="red" stroke="red" stroke-width="0.1" points="992.36,-118.37 988.86,-108.37 985.36,-118.37 992.36,-118.37"/>
</g>
<!-- &#45;6 -->
<g id="node6" class="node">
<title>&#45;6</title>
<polygon fill="lightgray" stroke="black" points="1239.86,-162.12 1215.86,-162.12 1215.86,-144.12 1239.86,-144.12 1239.86,-162.12"/>
<text text-anchor="middle" x="1227.86" y="-150.92" font-family="Times New Roman,serif" font-size="9.00">&#45;6</text>
</g>
<!-- &#45;6&#45;&gt;0 -->
<g id="edge32" class="edge">
<title>&#45;6&#45;&gt;0</title>
<path fill="none" stroke="red" stroke-width="0.13" d="M1239.87,-150.33C1260.13,-146.59 1300.55,-135.86 1317.86,-108.12 1327.85,-92.13 1328.05,-81.56 1317.86,-65.7 1299.38,-36.92 1259.7,-24.55 1233.66,-19.38"/>
<polygon fill="red" stroke="red" stroke-width="0.13" points="1234.22,-15.92 1223.76,-17.63 1233,-22.82 1234.22,-15.92"/>
</g>
<!-- &#45;6&#45;&gt;1 -->
<g id="edge56" class="edge">
<title>&#45;6&#45;&gt;1</title>
<path fill="none" stroke="red" stroke-width="0.36" d="M1239.95,-149.17C1263.21,-143.24 1315.42,-128.66 1355.86,-108.12 1358.93,-106.57 1362.04,-104.73 1365.03,-102.8"/>
<polygon fill="red" stroke="red" stroke-width="0.36" points="1367.24,-105.52 1373.47,-96.95 1363.26,-99.76 1367.24,-105.52"/>
</g>
<!-- &#45;6&#45;&gt;3 -->
<g id="edge64" class="edge">
<title>&#45;6&#45;&gt;3</title>
<path fill="none" stroke="red" stroke-width="0.27" d="M1215.69,-151.76C1185.49,-150.31 1105.7,-143.19 1051.86,-108.12 1031.84,-95.09 1039.2,-78.24 1018.86,-65.7 980.78,-42.22 847.62,-24.92 791.79,-18.54"/>
<polygon fill="red" stroke="red" stroke-width="0.27" points="792.03,-15.05 781.7,-17.41 791.25,-22 792.03,-15.05"/>
</g>
<!-- &#45;6&#45;&gt;4 -->
<g id="edge40" class="edge">
<title>&#45;6&#45;&gt;4</title>
<path fill="none" stroke="red" stroke-width="0.16" d="M1215.62,-146.88C1177.79,-130.59 1059.59,-78.96 964.86,-29.7 964.04,-29.27 963.21,-28.83 962.37,-28.38"/>
<polygon fill="red" stroke="red" stroke-width="0.16" points="963.89,-25.22 953.45,-23.39 960.47,-31.33 963.89,-25.22"/>
</g>
<!-- &#45;6&#45;&gt;6 -->
<g id="edge18" class="edge">
<title>&#45;6&#45;&gt;6</title>
<path fill="none" stroke="green" stroke-width="0.27" d="M1232.93,-143.9C1242.52,-127.15 1260.78,-88.71 1241.86,-65.7 1213.15,-30.78 1072.25,-19.93 1014.07,-16.91"/>
<polygon fill="green" stroke="green" stroke-width="0.27" points="1014.06,-13.4 1003.9,-16.42 1013.72,-20.39 1014.06,-13.4"/>
</g>
<!-- &#45;6&#45;&gt;145 -->
<g id="edge39" class="edge">
<title>&#45;6&#45;&gt;145</title>
<path fill="none" stroke="green" stroke-width="0.12" d="M1215.5,-150.2C1159.64,-141.52 929.86,-105.79 845.82,-92.73"/>
<polygon fill="green" stroke="green" stroke-width="0.12" points="846.29,-89.26 835.87,-91.18 845.21,-96.17 846.29,-89.26"/>
</g>
<!-- &#45;6&#45;&gt;146 -->
<g id="edge63" class="edge">
<title>&#45;6&#45;&gt;146</title>
<path fill="none" stroke="green" stroke-width="0.43" d="M1215.52,-150.82C1183.16,-147.11 1093.5,-134.98 1023.86,-108.12 1020.94,-107 1017.98,-105.65 1015.08,-104.2"/>
<polygon fill="green" stroke="green" stroke-width="0.43" points="1016.59,-101.03 1006.13,-99.31 1013.23,-107.18 1016.59,-101.03"/>
</g>
<!-- &#45;7 -->
<g id="node7" class="node">
<title>&#45;7</title>
<polygon fill="lightgray" stroke="black" points="375.86,-162.12 351.86,-162.12 351.86,-144.12 375.86,-144.12 375.86,-162.12"/>
<text text-anchor="middle" x="363.86" y="-150.92" font-family="Times New Roman,serif" font-size="9.00">&#45;7</text>
</g>
<!-- &#45;7&#45;&gt;0 -->
<g id="edge20" class="edge">
<title>&#45;7&#45;&gt;0</title>
<path fill="none" stroke="red" stroke-width="0.18" d="M376.02,-148.08C418.35,-134.18 563.46,-87.94 686.86,-65.7 784.26,-48.14 1092.77,-24.45 1183.52,-17.71"/>
<polygon fill="red" stroke="red" stroke-width="0.18" points="1183.99,-21.18 1193.71,-16.95 1183.47,-14.2 1183.99,-21.18"/>
</g>
<!-- &#45;7&#45;&gt;2 -->
<g id="edge42" class="edge">
<title>&#45;7&#45;&gt;2</title>
<path fill="none" stroke="green" stroke-width="0.11" d="M351.72,-151.43C311.59,-148.87 184.33,-138.43 159.86,-108.12 142.64,-86.79 158.91,-54.99 172.87,-34.85"/>
<polygon fill="green" stroke="green" stroke-width="0.11" points="175.72,-36.88 178.8,-26.74 170.07,-32.74 175.72,-36.88"/>
</g>
<!-- &#45;7&#45;&gt;3 -->
<g id="edge58" class="edge">
<title>&#45;7&#45;&gt;3</title>
<path fill="none" stroke="red" stroke-width="0.14" d="M367.04,-144.02C374.42,-126.43 394.47,-84.81 425.86,-65.7 452.84,-49.28 667.32,-26.03 741.62,-18.39"/>
<polygon fill="red" stroke="red" stroke-width="0.14" points="742.32,-21.84 751.91,-17.34 741.61,-14.87 742.32,-21.84"/>
</g>
<!-- &#45;7&#45;&gt;4 -->
<g id="edge19" class="edge">
<title>&#45;7&#45;&gt;4</title>
<path fill="none" stroke="green" stroke-width="0.51" d="M373.44,-143.94C394.82,-126.19 448.76,-84.26 501.86,-65.7 521.58,-58.8 825.82,-27.53 915.91,-18.37"/>
<polygon fill="green" stroke="green" stroke-width="0.51" points="916.43,-21.84 926.03,-17.35 915.73,-14.87 916.43,-21.84"/>
</g>
<!-- &#45;7&#45;&gt;5 -->
<g id="edge28" class="edge">
<title>&#45;7&#45;&gt;5</title>
<path fill="none" stroke="red" stroke-width="0.21" d="M351.69,-152.21C325.3,-151.66 263.03,-146.19 235.86,-108.12 221.13,-87.48 229.65,-57.58 238.49,-37.46"/>
<polygon fill="red" stroke="red" stroke-width="0.21" points="241.76,-38.73 242.89,-28.19 235.44,-35.72 241.76,-38.73"/>
</g>
<!-- &#45;7&#45;&gt;145 -->
<g id="edge29" class="edge">
<title>&#45;7&#45;&gt;145</title>
<path fill="none" stroke="green" stroke-width="0.35" d="M375.89,-151.51C423.43,-148.91 602.6,-137.62 746.86,-108.12 759.55,-105.53 773.3,-101.66 785.08,-97.99"/>
<polygon fill="green" stroke="green" stroke-width="0.35" points="786.4,-101.24 794.86,-94.86 784.27,-94.57 786.4,-101.24"/>
</g>
<!-- &#45;8 -->
<g id="node8" class="node">
<title>&#45;8</title>
<polygon fill="lightgray" stroke="black" points="1477.86,-162.12 1453.86,-162.12 1453.86,-144.12 1477.86,-144.12 1477.86,-162.12"/>
<text text-anchor="middle" x="1465.86" y="-150.92" font-family="Times New Roman,serif" font-size="9.00">&#45;8</text>
</g>
<!-- &#45;8&#45;&gt;0 -->
<g id="edge27" class="edge">
<title>&#45;8&#45;&gt;0</title>
<path fill="none" stroke="green" stroke-width="0.38" d="M1478.02,-145.98C1490.65,-138.83 1509.7,-125.72 1517.86,-108.12 1525.79,-91.02 1530.09,-80.05 1517.86,-65.7 1481.32,-22.79 1301.09,-16.69 1234.04,-15.92"/>
<polygon fill="green" stroke="green" stroke-width="0.38" points="1233.97,-12.42 1223.94,-15.83 1233.91,-19.42 1233.97,-12.42"/>
</g>
<!-- &#45;8&#45;&gt;1 -->
<g id="edge24" class="edge">
<title>&#45;8&#45;&gt;1</title>
<path fill="none" stroke="red" stroke-width="0.2" d="M1455.6,-143.99C1442.74,-133.8 1420.43,-116.11 1404.3,-103.32"/>
<polygon fill="red" stroke="red" stroke-width="0.2" points="1406.09,-100.27 1396.07,-96.8 1401.74,-105.76 1406.09,-100.27"/>
</g>
<!-- &#45;8&#45;&gt;3 -->
<g id="edge65" class="edge">
<title>&#45;8&#45;&gt;3</title>
<path fill="none" stroke="red" stroke-width="0.41" d="M1466.39,-144.09C1467.06,-126.64 1465.88,-85.29 1441.86,-65.7 1396.55,-28.74 975.14,-34.39 916.86,-29.7 872.94,-26.17 821.86,-21.28 792.07,-18.36"/>
<polygon fill="red" stroke="red" stroke-width="0.41" points="792.05,-14.84 781.75,-17.34 791.36,-21.81 792.05,-14.84"/>
</g>
<!-- &#45;8&#45;&gt;4 -->
<g id="edge55" class="edge">
<title>&#45;8&#45;&gt;4</title>
<path fill="none" stroke="red" stroke-width="0.35" d="M1471,-143.96C1480.98,-126.97 1500.28,-87.6 1479.86,-65.7 1440.74,-23.75 1019.72,-46.46 964.86,-29.7 963.8,-29.38 962.74,-29 961.68,-28.58"/>
<polygon fill="red" stroke="red" stroke-width="0.35" points="963.09,-25.37 952.58,-24.03 959.96,-31.63 963.09,-25.37"/>
</g>
<!-- &#45;8&#45;&gt;5 -->
<g id="edge50" class="edge">
<title>&#45;8&#45;&gt;5</title>
<path fill="none" stroke="green" stroke-width="0.36" d="M1461.11,-144.04C1448.92,-123.44 1416.92,-70.26 1408.86,-65.7 1327.47,-19.61 661.3,-33.73 567.86,-29.7 458.85,-24.99 328.82,-19.31 275.04,-16.95"/>
<polygon fill="green" stroke="green" stroke-width="0.36" points="274.91,-13.44 264.76,-16.5 274.6,-20.44 274.91,-13.44"/>
</g>
<!-- &#45;8&#45;&gt;7 -->
<g id="edge5" class="edge">
<title>&#45;8&#45;&gt;7</title>
<path fill="none" stroke="green" stroke-width="0.11" d="M1477.87,-150.33C1498.13,-146.59 1538.55,-135.86 1555.86,-108.12 1565.85,-92.13 1564.56,-82.43 1555.86,-65.7 1545.82,-46.37 1524.46,-32.97 1507.78,-24.97"/>
<polygon fill="green" stroke="green" stroke-width="0.11" points="1509.18,-21.76 1498.62,-20.88 1506.33,-28.15 1509.18,-21.76"/>
</g>
<!-- &#45;8&#45;&gt;146 -->
<g id="edge25" class="edge">
<title>&#45;8&#45;&gt;146</title>
<path fill="none" stroke="green" stroke-width="0.28" d="M1453.59,-150.47C1391.74,-142.15 1113.43,-104.68 1019.75,-92.07"/>
<polygon fill="green" stroke="green" stroke-width="0.28" points="1020.14,-88.59 1009.76,-90.73 1019.2,-95.53 1020.14,-88.59"/>
</g>
<!-- &#45;9 -->
<g id="node9" class="node">
<title>&#45;9</title>
<polygon fill="lightgray" stroke="black" points="1610.86,-162.12 1586.86,-162.12 1586.86,-144.12 1610.86,-144.12 1610.86,-162.12"/>
<text text-anchor="middle" x="1598.86" y="-150.92" font-family="Times New Roman,serif" font-size="9.00">&#45;9</text>
</g>
<!-- &#45;9&#45;&gt;1 -->
<g id="edge15" class="edge">
<title>&#45;9&#45;&gt;1</title>
<path fill="none" stroke="green" stroke-width="0.15" d="M1586.74,-148.49C1552.45,-138.2 1454.29,-108.75 1408.69,-95.06"/>
<polygon fill="green" stroke="green" stroke-width="0.15" points="1409.62,-91.69 1399.04,-92.17 1407.61,-98.39 1409.62,-91.69"/>
</g>
<!-- &#45;9&#45;&gt;4 -->
<g id="edge33" class="edge">
<title>&#45;9&#45;&gt;4</title>
<path fill="none" stroke="green" stroke-width="0.12" d="M1592.61,-144.03C1578.2,-126.08 1540.59,-83.14 1497.86,-65.7 1278.05,24.05 1192,-98.82 964.86,-29.7 963.8,-29.38 962.74,-29 961.68,-28.58"/>
<polygon fill="green" stroke="green" stroke-width="0.12" points="963.09,-25.37 952.58,-24.03 959.96,-31.63 963.09,-25.37"/>
</g>
<!-- &#45;9&#45;&gt;6 -->
<g id="edge34" class="edge">
<title>&#45;9&#45;&gt;6</title>
<path fill="none" stroke="red" stroke-width="0.23" d="M1601.41,-144.11C1606.27,-127.05 1614.65,-87 1593.86,-65.7 1588.7,-60.41 1127.22,-26.05 1013.82,-17.68"/>
<polygon fill="red" stroke="red" stroke-width="0.23" points="1013.91,-14.18 1003.68,-16.94 1013.39,-21.16 1013.91,-14.18"/>
</g>
<!-- &#45;9&#45;&gt;7 -->
<g id="edge44" class="edge">
<title>&#45;9&#45;&gt;7</title>
<path fill="none" stroke="red" stroke-width="0.4" d="M1598.4,-144.06C1597.08,-127.61 1592.02,-89.7 1572.86,-65.7 1556.25,-44.9 1528.46,-31.25 1508.55,-23.58"/>
<polygon fill="red" stroke="red" stroke-width="0.4" points="1509.55,-20.22 1498.96,-20.11 1507.17,-26.81 1509.55,-20.22"/>
</g>
<!-- 144&#45;&gt;4 -->
<g id="edge66" class="edge">
<title>144&#45;&gt;4</title>
<path fill="none" stroke="green" stroke-width="0.1" d="M734.2,-74.68C739.69,-71.46 745.89,-68.16 751.86,-65.7 808.45,-42.39 879.1,-27.18 915.92,-20.23"/>
<polygon fill="green" stroke="green" stroke-width="0.1" points="917.01,-23.59 926.21,-18.34 915.74,-16.7 917.01,-23.59"/>
</g>
<!-- 144&#45;&gt;6 -->
<g id="edge67" class="edge">
<title>144&#45;&gt;6</title>
<path fill="none" stroke="green" stroke-width="0.27" d="M734.07,-74.35C739.56,-71.11 745.79,-67.89 751.86,-65.7 842.19,-33.18 874.52,-62.2 964.86,-29.7 965.73,-29.38 966.61,-29.04 967.48,-28.67"/>
<polygon fill="green" stroke="green" stroke-width="0.27" points="969.23,-31.71 976.57,-24.06 966.06,-25.47 969.23,-31.71"/>
</g>
<!-- 144&#45;&gt;8 -->
<g id="edge47" class="edge">
<title>144&#45;&gt;8</title>
<path fill="none" stroke="red" stroke-width="0.2" d="M698.68,-75.72C675.97,-62.99 637.16,-41.24 613.1,-27.75"/>
<polygon fill="red" stroke="red" stroke-width="0.2" points="614.8,-24.7 604.37,-22.86 611.38,-30.8 614.8,-24.7"/>
</g>
<!-- 145&#45;&gt;2 -->
<g id="edge41" class="edge">
<title>145&#45;&gt;2</title>
<path fill="none" stroke="green" stroke-width="0.14" d="M795.2,-78.82C781.77,-74.28 763.46,-68.7 746.86,-65.7 518.46,-24.38 452.91,-77.91 225.86,-29.7 220.89,-28.64 215.68,-27.07 210.78,-25.37"/>
<polygon fill="green" stroke="green" stroke-width="0.14" points="211.9,-22.05 201.31,-21.8 209.43,-28.6 211.9,-22.05"/>
</g>
<!-- 145&#45;&gt;6 -->
<g id="edge36" class="edge">
<title>145&#45;&gt;6</title>
<path fill="none" stroke="red" stroke-width="0.17" d="M835.19,-79.48C864.44,-69.96 919.84,-50.95 964.86,-29.7 965.7,-29.3 966.55,-28.89 967.4,-28.46"/>
<polygon fill="red" stroke="red" stroke-width="0.17" points="969.26,-31.43 976.37,-23.58 965.91,-25.29 969.26,-31.43"/>
</g>
<!-- 146&#45;&gt;0 -->
<g id="edge53" class="edge">
<title>146&#45;&gt;0</title>
<path fill="none" stroke="red" stroke-width="0.44" d="M1008.77,-79.57C1049.32,-66.66 1141.34,-37.35 1185,-23.45"/>
<polygon fill="red" stroke="red" stroke-width="0.44" points="1186.3,-26.71 1194.76,-20.34 1184.17,-20.04 1186.3,-26.71"/>
</g>
<!-- 146&#45;&gt;3 -->
<g id="edge10" class="edge">
<title>146&#45;&gt;3</title>
<path fill="none" stroke="red" stroke-width="0.44" d="M968.77,-79.57C927.75,-66.63 834.55,-37.21 790.62,-23.35"/>
<polygon fill="red" stroke="red" stroke-width="0.44" points="791.4,-19.92 780.81,-20.25 789.29,-26.6 791.4,-19.92"/>
</g>
<!-- 146&#45;&gt;4 -->
<g id="edge9" class="edge">
<title>146&#45;&gt;4</title>
<path fill="none" stroke="green" stroke-width="0.19" d="M977.24,-68.95C970.46,-59.05 961.86,-46.5 954.73,-36.09"/>
<polygon fill="green" stroke="green" stroke-width="0.19" points="957.46,-33.88 948.92,-27.61 951.68,-37.84 957.46,-33.88"/>
</g>
<!-- 146&#45;&gt;5 -->
<g id="edge37" class="edge">
<title>146&#45;&gt;5</title>
<path fill="none" stroke="green" stroke-width="0.24" d="M967.92,-82.6C939.94,-78.26 888.77,-70.62 844.86,-65.7 624.24,-40.99 356.35,-22.74 274.67,-17.43"/>
<polygon fill="green" stroke="green" stroke-width="0.24" points="274.82,-13.93 264.61,-16.78 274.36,-20.92 274.82,-13.93"/>
</g>
<!-- 146&#45;&gt;6 -->
<g id="edge60" class="edge">
<title>146&#45;&gt;6</title>
<path fill="none" stroke="red" stroke-width="0.32" d="M988.86,-65.65C988.86,-57.67 988.86,-48.43 988.86,-40.1"/>
<polygon fill="red" stroke="red" stroke-width="0.32" points="992.36,-39.85 988.86,-29.85 985.36,-39.85 992.36,-39.85"/>
</g>
<!-- 146&#45;&gt;7 -->
<g id="edge7" class="edge">
<title>146&#45;&gt;7</title>
<path fill="none" stroke="red" stroke-width="0.14" d="M1009.86,-82.95C1089.7,-71.67 1374.25,-31.47 1460.14,-19.34"/>
<polygon fill="red" stroke="red" stroke-width="0.14" points="1460.84,-22.78 1470.25,-17.91 1459.86,-15.85 1460.84,-22.78"/>
</g>
</g>
</svg>
